<?xml version="1.0" encoding="utf-8" standalone="no"?>
<!DOCTYPE svg PUBLIC "-//W3C//DTD SVG 1.1//EN"
  "http://www.w3.org/Graphics/SVG/1.1/DTD/svg11.dtd">
<svg xmlns:xlink="http://www.w3.org/1999/xlink" width="432pt" height="720pt" viewBox="0 0 432 720" xmlns="http://www.w3.org/2000/svg" version="1.1">
 <metadata>
  <rdf:RDF xmlns:dc="http://purl.org/dc/elements/1.1/" xmlns:cc="http://creativecommons.org/ns#" xmlns:rdf="http://www.w3.org/1999/02/22-rdf-syntax-ns#">
   <cc:Work>
    <dc:type rdf:resource="http://purl.org/dc/dcmitype/StillImage"/>
    <dc:date>2024-04-21T19:23:23.390857</dc:date>
    <dc:format>image/svg+xml</dc:format>
    <dc:creator>
     <cc:Agent>
      <dc:title>Matplotlib v3.7.2, https://matplotlib.org/</dc:title>
     </cc:Agent>
    </dc:creator>
   </cc:Work>
  </rdf:RDF>
 </metadata>
 <defs>
  <style type="text/css">*{stroke-linejoin: round; stroke-linecap: butt}</style>
 </defs>
 <g id="figure_1">
  <g id="patch_1">
   <path d="M 0 720 
L 432 720 
L 432 0 
L 0 0 
z
" style="fill: #ffdd95"/>
  </g>
  <g id="axes_1">
   <g id="patch_2">
    <path d="M 38.248732 615.6 
L 388.8 615.6 
L 388.8 605.208247 
L 38.248732 605.208247 
z
" clip-path="url(#p1aec1d9f95)" style="fill: #dc143c"/>
   </g>
   <g id="patch_3">
    <path d="M 113.070866 589.620619 
L 313.977866 589.620619 
L 313.977866 579.228866 
L 113.070866 579.228866 
z
" clip-path="url(#p1aec1d9f95)" style="fill: #dc143c"/>
   </g>
   <g id="patch_4">
    <path d="M 117.892639 563.641237 
L 309.156093 563.641237 
L 309.156093 553.249485 
L 117.892639 553.249485 
z
" clip-path="url(#p1aec1d9f95)" style="fill: #dc143c"/>
   </g>
   <g id="patch_5">
    <path d="M 121.820114 537.661856 
L 305.228618 537.661856 
L 305.228618 527.270103 
L 121.820114 527.270103 
z
" clip-path="url(#p1aec1d9f95)" style="fill: #dc143c"/>
   </g>
   <g id="patch_6">
    <path d="M 125.336199 511.682474 
L 301.712533 511.682474 
L 301.712533 501.290722 
L 125.336199 501.290722 
z
" clip-path="url(#p1aec1d9f95)" style="fill: #dc143c"/>
   </g>
   <g id="patch_7">
    <path d="M 131.142061 485.703093 
L 295.906671 485.703093 
L 295.906671 475.31134 
L 131.142061 475.31134 
z
" clip-path="url(#p1aec1d9f95)" style="fill: #dc143c"/>
   </g>
   <g id="patch_8">
    <path d="M 131.155699 459.723711 
L 295.893033 459.723711 
L 295.893033 449.331959 
L 131.155699 449.331959 
z
" clip-path="url(#p1aec1d9f95)" style="fill: #dc143c"/>
   </g>
   <g id="patch_9">
    <path d="M 131.788545 433.74433 
L 295.260187 433.74433 
L 295.260187 423.352577 
L 131.788545 423.352577 
z
" clip-path="url(#p1aec1d9f95)" style="fill: #dc143c"/>
   </g>
   <g id="patch_10">
    <path d="M 132.510907 407.764948 
L 294.537825 407.764948 
L 294.537825 397.373196 
L 132.510907 397.373196 
z
" clip-path="url(#p1aec1d9f95)" style="fill: #dc143c"/>
   </g>
   <g id="patch_11">
    <path d="M 136.966153 381.785567 
L 290.082579 381.785567 
L 290.082579 371.393814 
L 136.966153 371.393814 
z
" clip-path="url(#p1aec1d9f95)" style="fill: #dc143c"/>
   </g>
   <g id="patch_12">
    <path d="M 138.77024 355.806186 
L 288.278492 355.806186 
L 288.278492 345.414433 
L 138.77024 345.414433 
z
" clip-path="url(#p1aec1d9f95)" style="fill: #dc143c"/>
   </g>
   <g id="patch_13">
    <path d="M 140.89046 329.826804 
L 286.158271 329.826804 
L 286.158271 319.435052 
L 140.89046 319.435052 
z
" clip-path="url(#p1aec1d9f95)" style="fill: #dc143c"/>
   </g>
   <g id="patch_14">
    <path d="M 141.53731 303.847423 
L 285.511422 303.847423 
L 285.511422 293.45567 
L 141.53731 293.45567 
z
" clip-path="url(#p1aec1d9f95)" style="fill: #dc143c"/>
   </g>
   <g id="patch_15">
    <path d="M 142.2018 277.868041 
L 284.846932 277.868041 
L 284.846932 267.476289 
L 142.2018 267.476289 
z
" clip-path="url(#p1aec1d9f95)" style="fill: #dc143c"/>
   </g>
   <g id="patch_16">
    <path d="M 147.708148 251.88866 
L 279.340584 251.88866 
L 279.340584 241.496907 
L 147.708148 241.496907 
z
" clip-path="url(#p1aec1d9f95)" style="fill: #dc143c"/>
   </g>
   <g id="patch_17">
    <path d="M 148.243485 225.909278 
L 278.805247 225.909278 
L 278.805247 215.517526 
L 148.243485 215.517526 
z
" clip-path="url(#p1aec1d9f95)" style="fill: #dc143c"/>
   </g>
   <g id="patch_18">
    <path d="M 151.514506 199.929897 
L 275.534225 199.929897 
L 275.534225 189.538144 
L 151.514506 189.538144 
z
" clip-path="url(#p1aec1d9f95)" style="fill: #dc143c"/>
   </g>
   <g id="patch_19">
    <path d="M 152.542082 173.950515 
L 274.50665 173.950515 
L 274.50665 163.558763 
L 152.542082 163.558763 
z
" clip-path="url(#p1aec1d9f95)" style="fill: #dc143c"/>
   </g>
   <g id="patch_20">
    <path d="M 152.860483 147.971134 
L 274.188249 147.971134 
L 274.188249 137.579381 
L 152.860483 137.579381 
z
" clip-path="url(#p1aec1d9f95)" style="fill: #dc143c"/>
   </g>
   <g id="patch_21">
    <path d="M 155.826127 121.991753 
L 271.222605 121.991753 
L 271.222605 111.6 
L 155.826127 111.6 
z
" clip-path="url(#p1aec1d9f95)" style="fill: #dc143c"/>
   </g>
  </g>
 </g>
 <defs>
  <clipPath id="p1aec1d9f95">
   <rect x="54" y="86.4" width="334.8" height="554.4"/>
  </clipPath>
 </defs>
</svg>
