<?xml version="1.0" encoding="utf-8" standalone="no"?>
<!DOCTYPE svg PUBLIC "-//W3C//DTD SVG 1.1//EN"
  "http://www.w3.org/Graphics/SVG/1.1/DTD/svg11.dtd">
<svg xmlns:xlink="http://www.w3.org/1999/xlink" width="432pt" height="720pt" viewBox="0 0 432 720" xmlns="http://www.w3.org/2000/svg" version="1.1">
 <metadata>
  <rdf:RDF xmlns:dc="http://purl.org/dc/elements/1.1/" xmlns:cc="http://creativecommons.org/ns#" xmlns:rdf="http://www.w3.org/1999/02/22-rdf-syntax-ns#">
   <cc:Work>
    <dc:type rdf:resource="http://purl.org/dc/dcmitype/StillImage"/>
    <dc:date>2024-04-21T19:23:23.484340</dc:date>
    <dc:format>image/svg+xml</dc:format>
    <dc:creator>
     <cc:Agent>
      <dc:title>Matplotlib v3.7.2, https://matplotlib.org/</dc:title>
     </cc:Agent>
    </dc:creator>
   </cc:Work>
  </rdf:RDF>
 </metadata>
 <defs>
  <style type="text/css">*{stroke-linejoin: round; stroke-linecap: butt}</style>
 </defs>
 <g id="figure_1">
  <g id="patch_1">
   <path d="M 0 720 
L 432 720 
L 432 0 
L 0 0 
z
" style="fill: #ffdd95"/>
  </g>
  <g id="axes_1">
   <g id="patch_2">
    <path d="M 189.869969 615.6 
L 237.178763 615.6 
L 237.178763 605.208247 
L 189.869969 605.208247 
z
" clip-path="url(#p8d4f570ab1)" style="fill: #dc143c"/>
   </g>
   <g id="patch_3">
    <path d="M 190.350908 589.620619 
L 236.697824 589.620619 
L 236.697824 579.228866 
L 190.350908 579.228866 
z
" clip-path="url(#p8d4f570ab1)" style="fill: #dc143c"/>
   </g>
   <g id="patch_4">
    <path d="M 191.453184 563.641237 
L 235.595548 563.641237 
L 235.595548 553.249485 
L 191.453184 553.249485 
z
" clip-path="url(#p8d4f570ab1)" style="fill: #dc143c"/>
   </g>
   <g id="patch_5">
    <path d="M 192.709369 537.661856 
L 234.339362 537.661856 
L 234.339362 527.270103 
L 192.709369 527.270103 
z
" clip-path="url(#p8d4f570ab1)" style="fill: #dc143c"/>
   </g>
   <g id="patch_6">
    <path d="M 192.851603 511.682474 
L 234.197129 511.682474 
L 234.197129 501.290722 
L 192.851603 501.290722 
z
" clip-path="url(#p8d4f570ab1)" style="fill: #dc143c"/>
   </g>
   <g id="patch_7">
    <path d="M 192.974277 485.703093 
L 234.074455 485.703093 
L 234.074455 475.31134 
L 192.974277 475.31134 
z
" clip-path="url(#p8d4f570ab1)" style="fill: #dc143c"/>
   </g>
   <g id="patch_8">
    <path d="M 193.172321 459.723711 
L 233.876411 459.723711 
L 233.876411 449.331959 
L 193.172321 449.331959 
z
" clip-path="url(#p8d4f570ab1)" style="fill: #dc143c"/>
   </g>
   <g id="patch_9">
    <path d="M 195.579853 433.74433 
L 231.468879 433.74433 
L 231.468879 423.352577 
L 195.579853 423.352577 
z
" clip-path="url(#p8d4f570ab1)" style="fill: #dc143c"/>
   </g>
   <g id="patch_10">
    <path d="M 195.71888 407.764948 
L 231.329852 407.764948 
L 231.329852 397.373196 
L 195.71888 397.373196 
z
" clip-path="url(#p8d4f570ab1)" style="fill: #dc143c"/>
   </g>
   <g id="patch_11">
    <path d="M 196.064508 381.785567 
L 230.984224 381.785567 
L 230.984224 371.393814 
L 196.064508 371.393814 
z
" clip-path="url(#p8d4f570ab1)" style="fill: #dc143c"/>
   </g>
   <g id="patch_12">
    <path d="M 198.909029 355.806186 
L 228.139703 355.806186 
L 228.139703 345.414433 
L 198.909029 345.414433 
z
" clip-path="url(#p8d4f570ab1)" style="fill: #dc143c"/>
   </g>
   <g id="patch_13">
    <path d="M 199.850198 329.826804 
L 227.198534 329.826804 
L 227.198534 319.435052 
L 199.850198 319.435052 
z
" clip-path="url(#p8d4f570ab1)" style="fill: #dc143c"/>
   </g>
   <g id="patch_14">
    <path d="M 201.133076 303.847423 
L 225.915656 303.847423 
L 225.915656 293.45567 
L 201.133076 293.45567 
z
" clip-path="url(#p8d4f570ab1)" style="fill: #dc143c"/>
   </g>
   <g id="patch_15">
    <path d="M 201.631654 277.868041 
L 225.417078 277.868041 
L 225.417078 267.476289 
L 201.631654 267.476289 
z
" clip-path="url(#p8d4f570ab1)" style="fill: #dc143c"/>
   </g>
   <g id="patch_16">
    <path d="M 202.86262 251.88866 
L 224.186112 251.88866 
L 224.186112 241.496907 
L 202.86262 241.496907 
z
" clip-path="url(#p8d4f570ab1)" style="fill: #dc143c"/>
   </g>
   <g id="patch_17">
    <path d="M 203.118366 225.909278 
L 223.930366 225.909278 
L 223.930366 215.517526 
L 203.118366 215.517526 
z
" clip-path="url(#p8d4f570ab1)" style="fill: #dc143c"/>
   </g>
   <g id="patch_18">
    <path d="M 203.918591 199.929897 
L 223.130141 199.929897 
L 223.130141 189.538144 
L 203.918591 189.538144 
z
" clip-path="url(#p8d4f570ab1)" style="fill: #dc143c"/>
   </g>
   <g id="patch_19">
    <path d="M 204.717551 173.950515 
L 222.331181 173.950515 
L 222.331181 163.558763 
L 204.717551 163.558763 
z
" clip-path="url(#p8d4f570ab1)" style="fill: #dc143c"/>
   </g>
   <g id="patch_20">
    <path d="M 205.440555 147.971134 
L 221.608177 147.971134 
L 221.608177 137.579381 
L 205.440555 137.579381 
z
" clip-path="url(#p8d4f570ab1)" style="fill: #dc143c"/>
   </g>
   <g id="patch_21">
    <path d="M 205.648732 121.991753 
L 221.4 121.991753 
L 221.4 111.6 
L 205.648732 111.6 
z
" clip-path="url(#p8d4f570ab1)" style="fill: #dc143c"/>
   </g>
  </g>
 </g>
 <defs>
  <clipPath id="p8d4f570ab1">
   <rect x="54" y="86.4" width="334.8" height="554.4"/>
  </clipPath>
 </defs>
</svg>
