<?xml version="1.0" encoding="utf-8" standalone="no"?>
<!DOCTYPE svg PUBLIC "-//W3C//DTD SVG 1.1//EN"
  "http://www.w3.org/Graphics/SVG/1.1/DTD/svg11.dtd">
<svg xmlns:xlink="http://www.w3.org/1999/xlink" width="288pt" height="288pt" viewBox="0 0 288 288" xmlns="http://www.w3.org/2000/svg" version="1.1">
 <metadata>
  <rdf:RDF xmlns:dc="http://purl.org/dc/elements/1.1/" xmlns:cc="http://creativecommons.org/ns#" xmlns:rdf="http://www.w3.org/1999/02/22-rdf-syntax-ns#">
   <cc:Work>
    <dc:type rdf:resource="http://purl.org/dc/dcmitype/StillImage"/>
    <dc:date>2024-04-21T18:01:46.254867</dc:date>
    <dc:format>image/svg+xml</dc:format>
    <dc:creator>
     <cc:Agent>
      <dc:title>Matplotlib v3.7.2, https://matplotlib.org/</dc:title>
     </cc:Agent>
    </dc:creator>
   </cc:Work>
  </rdf:RDF>
 </metadata>
 <defs>
  <style type="text/css">*{stroke-linejoin: round; stroke-linecap: butt}</style>
 </defs>
 <g id="figure_1">
  <g id="patch_1">
   <path d="M 0 288 
L 288 288 
L 288 0 
L 0 0 
z
" style="fill: #ffdd95"/>
  </g>
  <g id="axes_1">
   <g id="patch_2">
    <path d="M 36 256.32 
L 259.2 256.32 
L 259.2 34.56 
L 36 34.56 
z
" style="fill: #ffdd95"/>
   </g>
   <g id="matplotlib.axis_1">
    <g id="xtick_1">
     <g id="line2d_1">
      <defs>
       <path id="mb15d41dd63" d="M 0 0 
L 0 3.5 
" style="stroke: #000000; stroke-width: 0.8"/>
      </defs>
      <g>
       <use xlink:href="#mb15d41dd63" x="46.145455" y="256.32" style="stroke: #000000; stroke-width: 0.8"/>
      </g>
     </g>
     <g id="text_1">
      <!-- 20 -->
      <g transform="translate(41.33358 269.24) scale(0.08 -0.08)">
       <defs>
        <path id="Poppins-Regular-32" d="M 326 467 
Q 1139 1120 1600 1539 
Q 2061 1958 2377 2416 
Q 2694 2874 2694 3315 
Q 2694 3731 2492 3971 
Q 2291 4211 1843 4211 
Q 1408 4211 1168 3939 
Q 928 3667 909 3213 
L 346 3213 
Q 371 3930 780 4320 
Q 1190 4710 1837 4710 
Q 2496 4710 2883 4345 
Q 3270 3981 3270 3341 
Q 3270 2810 2953 2307 
Q 2637 1805 2233 1424 
Q 1830 1043 1203 538 
L 3405 538 
L 3405 51 
L 326 51 
L 326 467 
z
" transform="scale(0.015625)"/>
        <path id="Poppins-Regular-30" d="M 397 2362 
Q 397 3462 755 4080 
Q 1114 4698 2010 4698 
Q 2899 4698 3257 4080 
Q 3616 3462 3616 2362 
Q 3616 1242 3257 621 
Q 2899 0 2010 0 
Q 1114 0 755 621 
Q 397 1242 397 2362 
z
M 3040 2362 
Q 3040 2918 2966 3305 
Q 2893 3693 2665 3929 
Q 2438 4166 2010 4166 
Q 1574 4166 1347 3929 
Q 1120 3693 1046 3305 
Q 973 2918 973 2362 
Q 973 1786 1046 1395 
Q 1120 1005 1347 768 
Q 1574 531 2010 531 
Q 2438 531 2665 768 
Q 2893 1005 2966 1395 
Q 3040 1786 3040 2362 
z
" transform="scale(0.015625)"/>
       </defs>
       <use xlink:href="#Poppins-Regular-32"/>
       <use xlink:href="#Poppins-Regular-30" x="57.499985"/>
      </g>
     </g>
    </g>
    <g id="xtick_2">
     <g id="line2d_2">
      <g>
       <use xlink:href="#mb15d41dd63" x="96.872727" y="256.32" style="stroke: #000000; stroke-width: 0.8"/>
      </g>
     </g>
     <g id="text_2">
      <!-- 40 -->
      <g transform="translate(91.844602 269.24) scale(0.08 -0.08)">
       <defs>
        <path id="Poppins-Regular-34" d="M 256 1030 
L 256 1472 
L 2502 4582 
L 3200 4582 
L 3200 1536 
L 3840 1536 
L 3840 1030 
L 3200 1030 
L 3200 0 
L 2624 0 
L 2624 1030 
L 256 1030 
z
M 2650 3974 
L 928 1536 
L 2650 1536 
L 2650 3974 
z
" transform="scale(0.015625)"/>
       </defs>
       <use xlink:href="#Poppins-Regular-34"/>
       <use xlink:href="#Poppins-Regular-30" x="62.899994"/>
      </g>
     </g>
    </g>
    <g id="xtick_3">
     <g id="line2d_3">
      <g>
       <use xlink:href="#mb15d41dd63" x="147.6" y="256.32" style="stroke: #000000; stroke-width: 0.8"/>
      </g>
     </g>
     <g id="text_3">
      <!-- 60 -->
      <g transform="translate(142.548125 269.24) scale(0.08 -0.08)">
       <defs>
        <path id="Poppins-Regular-36" d="M 2976 3526 
Q 2835 4237 2099 4237 
Q 1530 4237 1248 3798 
Q 966 3360 973 2355 
Q 1120 2688 1462 2877 
Q 1805 3066 2227 3066 
Q 2886 3066 3280 2656 
Q 3674 2246 3674 1523 
Q 3674 1088 3504 742 
Q 3334 397 2992 192 
Q 2650 -13 2163 -13 
Q 1504 -13 1133 281 
Q 762 576 614 1094 
Q 467 1613 467 2374 
Q 467 4723 2106 4723 
Q 2733 4723 3091 4384 
Q 3450 4045 3514 3526 
L 2976 3526 
z
M 2106 2573 
Q 1830 2573 1587 2461 
Q 1344 2349 1193 2121 
Q 1043 1894 1043 1568 
Q 1043 1082 1324 778 
Q 1606 474 2131 474 
Q 2579 474 2844 752 
Q 3110 1030 3110 1504 
Q 3110 2003 2854 2288 
Q 2598 2573 2106 2573 
z
" transform="scale(0.015625)"/>
       </defs>
       <use xlink:href="#Poppins-Regular-36"/>
       <use xlink:href="#Poppins-Regular-30" x="63.499985"/>
      </g>
     </g>
    </g>
    <g id="xtick_4">
     <g id="line2d_4">
      <g>
       <use xlink:href="#mb15d41dd63" x="198.327273" y="256.32" style="stroke: #000000; stroke-width: 0.8"/>
      </g>
     </g>
     <g id="text_4">
      <!-- 80 -->
      <g transform="translate(193.291648 269.24) scale(0.08 -0.08)">
       <defs>
        <path id="Poppins-Regular-38" d="M 1242 2406 
Q 883 2547 691 2816 
Q 499 3085 499 3469 
Q 499 3814 672 4092 
Q 845 4371 1187 4534 
Q 1530 4698 2016 4698 
Q 2502 4698 2844 4534 
Q 3187 4371 3363 4092 
Q 3539 3814 3539 3469 
Q 3539 3098 3340 2819 
Q 3142 2541 2797 2406 
Q 3194 2285 3427 1981 
Q 3661 1677 3661 1248 
Q 3661 832 3456 521 
Q 3251 211 2876 41 
Q 2502 -128 2016 -128 
Q 1530 -128 1162 41 
Q 794 211 589 521 
Q 384 832 384 1248 
Q 384 1677 614 1984 
Q 845 2291 1242 2406 
z
M 2976 3398 
Q 2976 3789 2720 4000 
Q 2464 4211 2016 4211 
Q 1574 4211 1318 4000 
Q 1062 3789 1062 3392 
Q 1062 3034 1328 2816 
Q 1594 2598 2016 2598 
Q 2445 2598 2710 2819 
Q 2976 3040 2976 3398 
z
M 2016 2150 
Q 1542 2150 1241 1929 
Q 941 1709 941 1267 
Q 941 858 1232 608 
Q 1523 358 2016 358 
Q 2509 358 2797 608 
Q 3085 858 3085 1267 
Q 3085 1696 2790 1923 
Q 2496 2150 2016 2150 
z
" transform="scale(0.015625)"/>
       </defs>
       <use xlink:href="#Poppins-Regular-38"/>
       <use xlink:href="#Poppins-Regular-30" x="63.099991"/>
      </g>
     </g>
    </g>
    <g id="xtick_5">
     <g id="line2d_5">
      <g>
       <use xlink:href="#mb15d41dd63" x="249.054545" y="256.32" style="stroke: #000000; stroke-width: 0.8"/>
      </g>
     </g>
     <g id="text_5">
      <!-- 100 -->
      <g transform="translate(242.750795 269.24) scale(0.08 -0.08)">
       <defs>
        <path id="Poppins-Regular-31" d="M 243 4096 
L 243 4627 
L 1446 4627 
L 1446 0 
L 858 0 
L 858 4096 
L 243 4096 
z
" transform="scale(0.015625)"/>
       </defs>
       <use xlink:href="#Poppins-Regular-31"/>
       <use xlink:href="#Poppins-Regular-30" x="31.999985"/>
       <use xlink:href="#Poppins-Regular-30" x="94.799973"/>
      </g>
     </g>
    </g>
   </g>
   <g id="matplotlib.axis_2">
    <g id="ytick_1">
     <g id="line2d_6">
      <defs>
       <path id="m49c7aacaf3" d="M 0 0 
L -3.5 0 
" style="stroke: #000000; stroke-width: 0.8"/>
      </defs>
      <g>
       <use xlink:href="#m49c7aacaf3" x="36" y="256.32" style="stroke: #000000; stroke-width: 0.8"/>
      </g>
     </g>
     <g id="text_6">
      <!-- 3.0 -->
      <g transform="translate(17.58375 259.28) scale(0.08 -0.08)">
       <defs>
        <path id="Poppins-Regular-33" d="M 384 3462 
Q 429 4051 838 4384 
Q 1248 4717 1901 4717 
Q 2336 4717 2653 4560 
Q 2970 4403 3133 4134 
Q 3296 3866 3296 3526 
Q 3296 3130 3069 2842 
Q 2842 2554 2477 2470 
L 2477 2438 
Q 2893 2336 3136 2035 
Q 3379 1734 3379 1248 
Q 3379 883 3212 592 
Q 3046 301 2713 134 
Q 2381 -32 1914 -32 
Q 1235 -32 800 323 
Q 365 678 314 1331 
L 877 1331 
Q 922 947 1190 704 
Q 1459 461 1907 461 
Q 2355 461 2588 694 
Q 2822 928 2822 1299 
Q 2822 1779 2502 1990 
Q 2182 2202 1536 2202 
L 1389 2202 
L 1389 2688 
L 1542 2688 
Q 2131 2694 2432 2883 
Q 2733 3072 2733 3469 
Q 2733 3808 2512 4013 
Q 2291 4218 1882 4218 
Q 1485 4218 1241 4013 
Q 998 3808 954 3462 
L 384 3462 
z
" transform="scale(0.015625)"/>
        <path id="Poppins-Regular-2e" d="M 678 -38 
Q 512 -38 397 77 
Q 282 192 282 358 
Q 282 525 397 640 
Q 512 755 678 755 
Q 838 755 950 640 
Q 1062 525 1062 358 
Q 1062 192 950 77 
Q 838 -38 678 -38 
z
" transform="scale(0.015625)"/>
       </defs>
       <use xlink:href="#Poppins-Regular-33"/>
       <use xlink:href="#Poppins-Regular-2e" x="58.899994"/>
       <use xlink:href="#Poppins-Regular-30" x="79.899979"/>
      </g>
     </g>
    </g>
    <g id="ytick_2">
     <g id="line2d_7">
      <g>
       <use xlink:href="#m49c7aacaf3" x="36" y="34.56" style="stroke: #000000; stroke-width: 0.8"/>
      </g>
     </g>
     <g id="text_7">
      <!-- 4.7 -->
      <g transform="translate(17.92 37.52) scale(0.08 -0.08)">
       <defs>
        <path id="Poppins-Regular-37" d="M 3245 4173 
L 1466 0 
L 877 0 
L 2682 4115 
L 211 4115 
L 211 4614 
L 3245 4614 
L 3245 4173 
z
" transform="scale(0.015625)"/>
       </defs>
       <use xlink:href="#Poppins-Regular-34"/>
       <use xlink:href="#Poppins-Regular-2e" x="62.899994"/>
       <use xlink:href="#Poppins-Regular-37" x="83.899979"/>
      </g>
     </g>
    </g>
   </g>
   <g id="line2d_8">
    <path d="M 46.145455 123.132752 
L 96.872727 110.278442 
L 147.6 113.567696 
L 198.327273 128.866808 
L 249.054545 117.37365 
" clip-path="url(#p44fb0c245f)" style="fill: none; stroke: #1f77b4; stroke-width: 1.5; stroke-linecap: square"/>
   </g>
   <g id="patch_3">
    <path d="M 36 256.32 
L 36 34.56 
" style="fill: none; stroke: #000000; stroke-width: 0.8; stroke-linejoin: miter; stroke-linecap: square"/>
   </g>
   <g id="patch_4">
    <path d="M 259.2 256.32 
L 259.2 34.56 
" style="fill: none; stroke: #000000; stroke-width: 0.8; stroke-linejoin: miter; stroke-linecap: square"/>
   </g>
   <g id="patch_5">
    <path d="M 36 256.32 
L 259.2 256.32 
" style="fill: none; stroke: #000000; stroke-width: 0.8; stroke-linejoin: miter; stroke-linecap: square"/>
   </g>
   <g id="patch_6">
    <path d="M 36 34.56 
L 259.2 34.56 
" style="fill: none; stroke: #000000; stroke-width: 0.8; stroke-linejoin: miter; stroke-linecap: square"/>
   </g>
   <g id="text_8">
    <!-- Foodgrains, Oil &amp; Masala -->
    <g transform="translate(84.007812 28.56) scale(0.1 -0.1)">
     <defs>
      <path id="Poppins-Bold-46" d="M 3322 4493 
L 3322 3616 
L 1491 3616 
L 1491 2669 
L 2861 2669 
L 2861 1818 
L 1491 1818 
L 1491 0 
L 397 0 
L 397 4493 
L 3322 4493 
z
" transform="scale(0.015625)"/>
      <path id="Poppins-Bold-6f" d="M 2022 -51 
Q 1498 -51 1078 173 
Q 659 397 419 813 
Q 179 1229 179 1786 
Q 179 2336 422 2755 
Q 666 3174 1088 3398 
Q 1510 3622 2035 3622 
Q 2560 3622 2982 3398 
Q 3405 3174 3648 2755 
Q 3891 2336 3891 1786 
Q 3891 1235 3644 816 
Q 3398 397 2972 173 
Q 2547 -51 2022 -51 
z
M 2022 896 
Q 2336 896 2557 1126 
Q 2778 1357 2778 1786 
Q 2778 2214 2563 2444 
Q 2349 2675 2035 2675 
Q 1715 2675 1504 2448 
Q 1293 2221 1293 1786 
Q 1293 1357 1501 1126 
Q 1709 896 2022 896 
z
" transform="scale(0.015625)"/>
      <path id="Poppins-Bold-64" d="M 179 1792 
Q 179 2342 387 2758 
Q 595 3174 953 3398 
Q 1312 3622 1754 3622 
Q 2106 3622 2397 3475 
Q 2688 3328 2854 3078 
L 2854 4736 
L 3949 4736 
L 3949 0 
L 2854 0 
L 2854 512 
Q 2701 256 2416 102 
Q 2131 -51 1754 -51 
Q 1312 -51 953 176 
Q 595 403 387 822 
Q 179 1242 179 1792 
z
M 2854 1786 
Q 2854 2195 2627 2432 
Q 2400 2669 2074 2669 
Q 1747 2669 1520 2435 
Q 1293 2202 1293 1792 
Q 1293 1382 1520 1142 
Q 1747 902 2074 902 
Q 2400 902 2627 1139 
Q 2854 1376 2854 1786 
z
" transform="scale(0.015625)"/>
      <path id="Poppins-Bold-67" d="M 1754 3622 
Q 2131 3622 2416 3468 
Q 2701 3315 2854 3066 
L 2854 3571 
L 3949 3571 
L 3949 6 
Q 3949 -486 3753 -886 
Q 3558 -1286 3158 -1523 
Q 2758 -1760 2163 -1760 
Q 1370 -1760 877 -1385 
Q 384 -1011 314 -371 
L 1395 -371 
Q 1446 -576 1638 -694 
Q 1830 -813 2112 -813 
Q 2451 -813 2652 -617 
Q 2854 -422 2854 6 
L 2854 512 
Q 2694 262 2412 105 
Q 2131 -51 1754 -51 
Q 1312 -51 953 176 
Q 595 403 387 822 
Q 179 1242 179 1792 
Q 179 2342 387 2758 
Q 595 3174 953 3398 
Q 1312 3622 1754 3622 
z
M 2854 1786 
Q 2854 2195 2627 2432 
Q 2400 2669 2074 2669 
Q 1747 2669 1520 2435 
Q 1293 2202 1293 1792 
Q 1293 1382 1520 1142 
Q 1747 902 2074 902 
Q 2400 902 2627 1139 
Q 2854 1376 2854 1786 
z
" transform="scale(0.015625)"/>
      <path id="Poppins-Bold-72" d="M 1491 2976 
Q 1683 3270 1971 3440 
Q 2259 3610 2611 3610 
L 2611 2451 
L 2310 2451 
Q 1901 2451 1696 2275 
Q 1491 2099 1491 1658 
L 1491 0 
L 397 0 
L 397 3571 
L 1491 3571 
L 1491 2976 
z
" transform="scale(0.015625)"/>
      <path id="Poppins-Bold-61" d="M 179 1792 
Q 179 2342 387 2758 
Q 595 3174 953 3398 
Q 1312 3622 1754 3622 
Q 2131 3622 2416 3468 
Q 2701 3315 2854 3066 
L 2854 3571 
L 3949 3571 
L 3949 0 
L 2854 0 
L 2854 506 
Q 2694 256 2409 102 
Q 2125 -51 1747 -51 
Q 1312 -51 953 176 
Q 595 403 387 822 
Q 179 1242 179 1792 
z
M 2854 1786 
Q 2854 2195 2627 2432 
Q 2400 2669 2074 2669 
Q 1747 2669 1520 2435 
Q 1293 2202 1293 1792 
Q 1293 1382 1520 1142 
Q 1747 902 2074 902 
Q 2400 902 2627 1139 
Q 2854 1376 2854 1786 
z
" transform="scale(0.015625)"/>
      <path id="Poppins-Bold-69" d="M 947 3942 
Q 659 3942 476 4112 
Q 294 4282 294 4531 
Q 294 4787 476 4956 
Q 659 5126 947 5126 
Q 1229 5126 1411 4956 
Q 1594 4787 1594 4531 
Q 1594 4282 1411 4112 
Q 1229 3942 947 3942 
z
M 1491 3571 
L 1491 0 
L 397 0 
L 397 3571 
L 1491 3571 
z
" transform="scale(0.015625)"/>
      <path id="Poppins-Bold-6e" d="M 2573 3610 
Q 3200 3610 3574 3203 
Q 3949 2797 3949 2086 
L 3949 0 
L 2861 0 
L 2861 1939 
Q 2861 2298 2675 2496 
Q 2490 2694 2176 2694 
Q 1862 2694 1676 2496 
Q 1491 2298 1491 1939 
L 1491 0 
L 397 0 
L 397 3571 
L 1491 3571 
L 1491 3098 
Q 1658 3334 1939 3472 
Q 2221 3610 2573 3610 
z
" transform="scale(0.015625)"/>
      <path id="Poppins-Bold-73" d="M 1850 -51 
Q 1382 -51 1017 109 
Q 653 269 441 547 
Q 230 826 205 1171 
L 1286 1171 
Q 1306 986 1459 870 
Q 1613 755 1837 755 
Q 2042 755 2154 835 
Q 2266 915 2266 1043 
Q 2266 1197 2106 1270 
Q 1946 1344 1587 1434 
Q 1203 1523 947 1622 
Q 691 1722 505 1936 
Q 320 2150 320 2515 
Q 320 2822 489 3075 
Q 659 3328 988 3475 
Q 1318 3622 1773 3622 
Q 2445 3622 2832 3289 
Q 3219 2957 3277 2406 
L 2266 2406 
Q 2240 2592 2102 2701 
Q 1965 2810 1741 2810 
Q 1549 2810 1446 2736 
Q 1344 2662 1344 2534 
Q 1344 2381 1507 2304 
Q 1670 2227 2016 2150 
Q 2413 2048 2662 1949 
Q 2912 1850 3101 1629 
Q 3290 1408 3296 1037 
Q 3296 723 3120 476 
Q 2944 230 2614 89 
Q 2285 -51 1850 -51 
z
" transform="scale(0.015625)"/>
      <path id="Poppins-Bold-2c" d="M 1574 1011 
L 864 -826 
L 166 -826 
L 538 1011 
L 1574 1011 
z
" transform="scale(0.015625)"/>
      <path id="Poppins-Bold-20" transform="scale(0.015625)"/>
      <path id="Poppins-Bold-4f" d="M 2522 -45 
Q 1888 -45 1360 249 
Q 832 544 521 1072 
Q 211 1600 211 2259 
Q 211 2918 521 3443 
Q 832 3968 1360 4262 
Q 1888 4557 2522 4557 
Q 3155 4557 3683 4262 
Q 4211 3968 4515 3443 
Q 4819 2918 4819 2259 
Q 4819 1600 4512 1072 
Q 4205 544 3680 249 
Q 3155 -45 2522 -45 
z
M 2522 954 
Q 3059 954 3382 1312 
Q 3706 1670 3706 2259 
Q 3706 2854 3382 3209 
Q 3059 3565 2522 3565 
Q 1978 3565 1654 3213 
Q 1331 2861 1331 2259 
Q 1331 1664 1654 1309 
Q 1978 954 2522 954 
z
" transform="scale(0.015625)"/>
      <path id="Poppins-Bold-6c" d="M 1491 4736 
L 1491 0 
L 397 0 
L 397 4736 
L 1491 4736 
z
" transform="scale(0.015625)"/>
      <path id="Poppins-Bold-26" d="M 3834 0 
L 3418 403 
Q 2797 -70 1933 -70 
Q 1414 -70 1030 99 
Q 646 269 438 579 
Q 230 890 230 1306 
Q 230 1728 457 2070 
Q 685 2413 1139 2630 
Q 973 2835 902 3024 
Q 832 3213 832 3437 
Q 832 3757 998 4019 
Q 1165 4282 1481 4432 
Q 1798 4582 2234 4582 
Q 2675 4582 2982 4422 
Q 3290 4262 3443 3993 
Q 3597 3725 3584 3405 
L 2554 3405 
Q 2560 3578 2467 3670 
Q 2374 3763 2221 3763 
Q 2067 3763 1964 3673 
Q 1862 3584 1862 3443 
Q 1862 3309 1948 3161 
Q 2035 3014 2221 2822 
L 3315 1754 
Q 3328 1786 3350 1830 
Q 3373 1875 3398 1933 
L 3635 2336 
L 4730 2336 
L 4422 1779 
Q 4250 1402 4026 1062 
L 5107 0 
L 3834 0 
z
M 1984 813 
Q 2413 813 2746 1056 
L 1747 2022 
Q 1286 1786 1286 1382 
Q 1286 1139 1475 976 
Q 1664 813 1984 813 
z
" transform="scale(0.015625)"/>
      <path id="Poppins-Bold-4d" d="M 5485 4493 
L 5485 0 
L 4390 0 
L 4390 2694 
L 3386 0 
L 2502 0 
L 1491 2701 
L 1491 0 
L 397 0 
L 397 4493 
L 1690 4493 
L 2950 1382 
L 4198 4493 
L 5485 4493 
z
" transform="scale(0.015625)"/>
     </defs>
     <use xlink:href="#Poppins-Bold-46"/>
     <use xlink:href="#Poppins-Bold-6f" x="54.699997"/>
     <use xlink:href="#Poppins-Bold-6f" x="118.399994"/>
     <use xlink:href="#Poppins-Bold-64" x="182.099991"/>
     <use xlink:href="#Poppins-Bold-67" x="249.999985"/>
     <use xlink:href="#Poppins-Bold-72" x="317.899979"/>
     <use xlink:href="#Poppins-Bold-61" x="360.699966"/>
     <use xlink:href="#Poppins-Bold-69" x="428.59996"/>
     <use xlink:href="#Poppins-Bold-6e" x="458.099945"/>
     <use xlink:href="#Poppins-Bold-73" x="525.499939"/>
     <use xlink:href="#Poppins-Bold-2c" x="581.299927"/>
     <use xlink:href="#Poppins-Bold-20" x="609.999924"/>
     <use xlink:href="#Poppins-Bold-4f" x="631.199921"/>
     <use xlink:href="#Poppins-Bold-69" x="709.799911"/>
     <use xlink:href="#Poppins-Bold-6c" x="739.299896"/>
     <use xlink:href="#Poppins-Bold-20" x="768.799881"/>
     <use xlink:href="#Poppins-Bold-26" x="789.999878"/>
     <use xlink:href="#Poppins-Bold-20" x="869.799866"/>
     <use xlink:href="#Poppins-Bold-4d" x="890.999863"/>
     <use xlink:href="#Poppins-Bold-61" x="982.79985"/>
     <use xlink:href="#Poppins-Bold-73" x="1050.699844"/>
     <use xlink:href="#Poppins-Bold-61" x="1106.499832"/>
     <use xlink:href="#Poppins-Bold-6c" x="1174.399826"/>
     <use xlink:href="#Poppins-Bold-61" x="1203.899811"/>
    </g>
   </g>
  </g>
 </g>
 <defs>
  <clipPath id="p44fb0c245f">
   <rect x="36" y="34.56" width="223.2" height="221.76"/>
  </clipPath>
 </defs>
</svg>
